<?xml version="1.0" encoding="utf-8"?>
<!-- Generator: Adobe Illustrator 17.0.0, SVG Export Plug-In . SVG Version: 6.00 Build 0)  -->
<!DOCTYPE svg PUBLIC "-//W3C//DTD SVG 1.1//EN" "http://www.w3.org/Graphics/SVG/1.1/DTD/svg11.dtd">
<svg version="1.1" id="Слой_1" xmlns="http://www.w3.org/2000/svg" xmlns:xlink="http://www.w3.org/1999/xlink" x="0px" y="0px"
	 width="555.098px" height="478.778px" viewBox="0 0 555.098 478.778" enable-background="new 0 0 555.098 478.778"
	 xml:space="preserve">
<g>
	<g>
		<g>
			<path fill="#333B40" d="M364.108,365.793l10.28-14.362l10.677-5.369l3.433,10.195l-6.61,2.226l-5.027-1.404l-7.171,12.46
				c-0.074,0.126-0.167,0.265-0.259,0.383c-1.139,1.471-3.256,1.737-4.724,0.597C363.236,369.38,362.969,367.263,364.108,365.793z"
				/>
		</g>
		<g>
			<path fill="#262D30" d="M306.962,385.039l-16.874-5.218l-11.75,2.184l3.434,10.195l6.61-2.226l3.154-4.159l13.249,5.583
				c0.134,0.056,0.29,0.111,0.436,0.149c1.796,0.482,3.643-0.586,4.122-2.382C309.826,387.367,308.758,385.52,306.962,385.039z"/>
		</g>
		<path opacity="0.5" fill="#75B5CE" d="M327.524,380.754c3.951,11.733-2.357,24.447-14.089,28.398l-7.162,2.412
			c-8.844,2.978-18.428-1.777-21.406-10.62l-3.875-11.507c-1.856-5.511,1.107-11.483,6.618-13.339l18.186-6.125
			C314.772,366.95,324.5,371.777,327.524,380.754z"/>
		<path opacity="0.5" fill="#75B5CE" d="M345.388,374.738c3.951,11.732,16.665,18.04,28.398,14.089l7.161-2.412
			c8.844-2.978,13.6-12.563,10.621-21.406l-3.875-11.507c-1.856-5.511-7.828-8.473-13.338-6.618l-18.187,6.125
			C347.192,356.032,342.365,365.761,345.388,374.738z"/>
		<path fill="#404049" d="M392.084,342.721c-0.591-1.572-2.217-2.477-3.863-2.151l-5.638,1.115
			c-7.303,1.444-14.598,3.923-21.202,7.207c-4.67,2.322-9.201,4.997-13.465,7.948l-9.116,6.305l-2.806,1.39
			c-2.35,1.164-4.883,2.017-7.46,2.511l-3.057,0.585l-11.053,0.487c-5.169,0.228-10.379,0.837-15.486,1.808
			c-3.748,0.712-7.48,1.69-11.096,2.908c-3.453,1.163-6.881,2.573-10.188,4.188l-5.152,2.517c-1.509,0.738-2.256,2.442-1.776,4.051
			l1.39,4.658c0.407,1.364,1.589,2.316,2.949,2.379c1.666,0.263,3.01,1.265,3.601,2.687l3.503,8.444
			c4.118,9.15,14.442,13.82,24.012,10.866l9.223-2.834c6.766-2.087,11.829-7.525,13.471-14.424l3.23-16.512
			c0.217-1.11,0.851-2.073,1.785-2.716c0.986-0.677,2.139-1.065,3.365-1.124c1.129-0.055,2.22,0.34,3.065,1.091l12.605,11.207
			c5.354,4.396,12.462,5.746,18.994,3.546l0.002-0.001c0.159-0.053,0.302-0.148,0.46-0.206l9.047-3.354
			c9.408-3.437,14.804-13.397,12.545-23.185l-2.303-8.797c-0.406-1.55,0.075-3.184,1.256-4.264c1.038-0.95,1.388-2.414,0.891-3.729
			L392.084,342.721z M389.149,364.483c2.791,7.328-0.898,15.561-8.224,18.355l-7.297,2.779c-0.358,0.145-0.723,0.279-1.084,0.401
			c-13.629,4.59-24.446-8.762-24.954-9.4c-1.838-2.878-2.403-6.422-1.549-9.729c0.857-3.318,3.078-6.152,6.094-7.776
			c6.903-3.715,14.191-6.81,21.659-9.196c4.901-1.565,10.175,0.974,12.007,5.784L389.149,364.483z M326.667,383.689
			c0.013,0.174,0.985,17.423-14.574,22.663c-0.242,0.081-0.487,0.158-0.729,0.233l-7.479,2.198
			c-7.524,2.207-15.44-2.117-17.65-9.641l-2.65-9.019c-1.451-4.938,1.213-10.151,6.062-11.869c0.628-0.222,1.256-0.438,1.886-0.65
			c6.799-2.29,13.839-4.016,20.926-5.13c3.384-0.531,6.868,0.382,9.556,2.506C324.704,377.102,326.4,380.281,326.667,383.689z"/>
		<g>
			<path fill="none" d="M312.458,372.474c-7.087,1.114-14.127,2.841-20.926,5.13c-0.63,0.212-1.258,0.427-1.886,0.65
				c-4.849,1.718-7.513,6.931-6.062,11.869l2.65,9.019c2.21,7.523,10.126,11.847,17.65,9.641l7.479-2.198
				c0.243-0.076,0.488-0.152,0.729-0.233c15.559-5.24,14.587-22.489,14.574-22.663c-0.267-3.408-1.963-6.586-4.654-8.709
				C319.325,372.855,315.841,371.943,312.458,372.474z"/>
			<path fill="none" d="M373.794,349.915c-7.468,2.386-14.757,5.481-21.659,9.196c-3.016,1.624-5.236,4.458-6.094,7.776
				c-0.854,3.307-0.289,6.851,1.549,9.729c0.507,0.638,11.324,13.99,24.954,9.4c0.361-0.122,0.726-0.255,1.084-0.401l7.297-2.779
				c7.326-2.794,11.016-11.027,8.224-18.355l-3.347-8.784C383.969,350.89,378.695,348.35,373.794,349.915z"/>
			<path fill="none" d="M392.084,342.721c-0.591-1.572-2.217-2.477-3.863-2.151l-5.638,1.115
				c-7.303,1.444-14.598,3.923-21.202,7.207c-4.67,2.322-9.201,4.997-13.465,7.948l-9.116,6.305l-2.806,1.39
				c-1.318,0.653-2.7,1.197-4.108,1.646l3.149,9.35c0.695-0.293,1.439-0.478,2.219-0.515c1.129-0.055,2.22,0.34,3.065,1.091
				l12.605,11.207c5.354,4.396,12.462,5.746,18.994,3.546l0.002-0.001c0.159-0.053,0.302-0.148,0.46-0.206l9.047-3.354
				c9.408-3.437,14.804-13.397,12.545-23.185l-2.303-8.797c-0.406-1.55,0.075-3.184,1.256-4.264c1.038-0.95,1.388-2.414,0.891-3.729
				L392.084,342.721z M380.924,382.838l-7.297,2.779c-0.358,0.145-0.723,0.279-1.084,0.401c-13.629,4.59-24.446-8.762-24.954-9.4
				c-1.838-2.878-2.403-6.422-1.549-9.729c0.857-3.318,3.078-6.152,6.094-7.776c6.903-3.715,14.191-6.81,21.659-9.196
				c4.901-1.565,10.175,0.974,12.007,5.784l3.347,8.784C391.94,371.811,388.251,380.043,380.924,382.838z"/>
		</g>
	</g>
	<path fill="none" d="M227.797,185.049c-0.007-0.027-0.02-0.07-0.029-0.111c-0.002-0.011-0.005-0.025-0.008-0.039
		C227.775,184.956,227.788,185.011,227.797,185.049z"/>
	<path fill="none" d="M227.826,184.911c-0.036-0.086-0.077-0.167-0.112-0.256c-0.008-0.03-0.01-0.056-0.016-0.087
		C227.757,184.72,227.796,184.823,227.826,184.911z"/>
	
		<radialGradient id="SVGID_1_" cx="262.0774" cy="523.533" r="35.6834" gradientTransform="matrix(4.5243 -1.3901 -1.3254 -4.314 -363.58 2845.345)" gradientUnits="userSpaceOnUse">
		<stop  offset="0" style="stop-color:#FFFFFF"/>
		<stop  offset="0.7758" style="stop-color:#D6DEE3"/>
		<stop  offset="0.9872" style="stop-color:#B3BCC2"/>
	</radialGradient>
	<path fill="url(#SVGID_1_)" d="M204.354,269.202c0.053-0.013,0.098-0.024,0.165-0.042c-0.009,0.006-0.019,0.009-0.028,0.015
		c-0.168,0.04-0.299,0.071-0.376,0.095C204.171,269.253,204.256,269.229,204.354,269.202z"/>
	
		<radialGradient id="SVGID_2_" cx="265.331" cy="523.5278" r="23.9714" gradientTransform="matrix(4.5243 -1.3901 -1.3254 -4.314 -363.58 2845.345)" gradientUnits="userSpaceOnUse">
		<stop  offset="0" style="stop-color:#FFFFFF"/>
		<stop  offset="0.7758" style="stop-color:#D6DEE3"/>
		<stop  offset="0.9872" style="stop-color:#B3BCC2"/>
	</radialGradient>
	<path fill="url(#SVGID_2_)" d="M205.194,268.944l36.4-11.184l-0.005-0.016l7.823-2.404l-12.011-39.091l-0.229-0.784
		c-0.006-0.03-0.01-0.056-0.016-0.086c0.011,0.026,0.02,0.047,0.029,0.067l0.251,0.778l12.012,39.094l0.038-0.012l0.007,0.021
		l-7.822,2.403l0.004,0.013l-36.403,11.185c-0.398,0.122-0.702,0.213-0.917,0.273c-0.139,0.031-0.251,0.059-0.322,0.081
		C204.218,269.232,204.611,269.123,205.194,268.944z"/>
	
		<radialGradient id="SVGID_3_" cx="265.1535" cy="523.5272" r="24.1354" gradientTransform="matrix(4.5243 -1.3901 -1.3254 -4.314 -363.58 2845.345)" gradientUnits="userSpaceOnUse">
		<stop  offset="0" style="stop-color:#FFFFFF"/>
		<stop  offset="0.7758" style="stop-color:#D6DEE3"/>
		<stop  offset="0.9872" style="stop-color:#B3BCC2"/>
	</radialGradient>
	<path fill="url(#SVGID_3_)" d="M227.698,184.568c0.006,0.03,0.008,0.056,0.016,0.087c-0.008-0.024-0.021-0.044-0.028-0.065
		c0.03,0.126,0.053,0.225,0.074,0.309c0.003,0.014,0.006,0.028,0.008,0.039c-0.057-0.203-0.15-0.532-0.292-0.994l-12.944-42.129
		c0.01-0.003,0.031-0.009,0.039-0.012l12.941,42.118c0.148,0.48,0.258,0.814,0.324,1.008c-0.003-0.005-0.006-0.01-0.01-0.017
		C227.796,184.823,227.757,184.72,227.698,184.568z"/>
	
		<radialGradient id="SVGID_4_" cx="265.3106" cy="522.961" r="23.3335" gradientTransform="matrix(4.5243 -1.3901 -1.3254 -4.314 -363.58 2845.345)" gradientUnits="userSpaceOnUse">
		<stop  offset="0" style="stop-color:#FFFFFF"/>
		<stop  offset="0.7758" style="stop-color:#D6DEE3"/>
		<stop  offset="0.9872" style="stop-color:#B3BCC2"/>
	</radialGradient>
	<path fill="url(#SVGID_4_)" d="M204.598,269.147c-0.069,0.027-0.13,0.055-0.197,0.084c-0.028,0.006-0.054,0.008-0.08,0.016
		c0.059-0.024,0.11-0.051,0.17-0.072C204.527,269.164,204.554,269.158,204.598,269.147z"/>
	
		<radialGradient id="SVGID_5_" cx="284.5303" cy="525.0074" r="0.0088" gradientTransform="matrix(4.5243 -1.3901 -1.3254 -4.314 -363.58 2845.345)" gradientUnits="userSpaceOnUse">
		<stop  offset="0" style="stop-color:#FFFFFF"/>
		<stop  offset="0.7758" style="stop-color:#D6DEE3"/>
		<stop  offset="0.9872" style="stop-color:#B3BCC2"/>
	</radialGradient>
	<path fill="url(#SVGID_5_)" d="M227.826,184.911c0.004,0.007,0.007,0.012,0.01,0.017c0.009,0.029,0.022,0.067,0.028,0.088
		C227.856,184.99,227.842,184.947,227.826,184.911z"/>
	
		<radialGradient id="SVGID_6_" cx="284.5303" cy="525.0074" r="0.0088" gradientTransform="matrix(4.5243 -1.3901 -1.3254 -4.314 -363.58 2845.345)" gradientUnits="userSpaceOnUse">
		<stop  offset="0" style="stop-color:#FFFFFF"/>
		<stop  offset="0.7758" style="stop-color:#D6DEE3"/>
		<stop  offset="0.9872" style="stop-color:#B3BCC2"/>
	</radialGradient>
	<path fill="url(#SVGID_6_)" d="M227.826,184.911c0.004,0.007,0.007,0.012,0.01,0.017c0.009,0.029,0.022,0.067,0.028,0.088
		C227.856,184.99,227.842,184.947,227.826,184.911z"/>
	
		<radialGradient id="SVGID_7_" cx="262.4003" cy="524.4438" r="36.4344" gradientTransform="matrix(4.5243 -1.3901 -1.3254 -4.314 -363.58 2845.345)" gradientUnits="userSpaceOnUse">
		<stop  offset="0" style="stop-color:#FFFFFF"/>
		<stop  offset="0.7758" style="stop-color:#D6DEE3"/>
		<stop  offset="0.9872" style="stop-color:#B3BCC2"/>
	</radialGradient>
	<path fill="url(#SVGID_7_)" d="M227.715,184.654c0.018,0.082,0.03,0.163,0.046,0.244c-0.021-0.084-0.044-0.183-0.074-0.309
		C227.694,184.611,227.706,184.63,227.715,184.654z"/>
	
		<radialGradient id="SVGID_8_" cx="265.6175" cy="523.5375" r="23.6152" gradientTransform="matrix(4.5243 -1.3901 -1.3254 -4.314 -363.58 2845.345)" gradientUnits="userSpaceOnUse">
		<stop  offset="0" style="stop-color:#FFFFFF"/>
		<stop  offset="0.7758" style="stop-color:#D6DEE3"/>
		<stop  offset="0.9872" style="stop-color:#B3BCC2"/>
	</radialGradient>
	<path fill="url(#SVGID_8_)" d="M227.715,184.654c0.018,0.082,0.03,0.163,0.046,0.244c-0.021-0.084-0.044-0.183-0.074-0.309
		C227.694,184.611,227.706,184.63,227.715,184.654z"/>
	<g>
		<path fill="#41CABE" d="M17.449,58.302L0,96.253c0,0,33.095-3.213,33.008-3.488C32.921,92.49,17.449,58.302,17.449,58.302z"/>
		<path fill="#E9ECED" d="M24.332,88.505c1.704-0.54,2.102-1.835,1.666-3.211l-8.549-26.991L201.141,0.12
			c1.348-0.427,2.784,0.32,3.211,1.666l92.099,290.773c0.426,1.346-0.318,2.782-1.667,3.209L86.748,361.66
			c-1.348,0.427-2.784-0.318-3.21-1.664L0,96.253L24.332,88.505z"/>
		<g>
			<g>
				<path fill="#41CABE" d="M74.578,118.039l-0.413,0.131L61.933,79.553c-21.327,6.755-33.14,29.521-26.385,50.848
					c6.755,21.328,29.521,33.142,50.848,26.387c21.291-6.744,33.097-29.441,26.418-50.736l-38.201,12.1L74.578,118.039z"/>
				<path fill="#F36D6D" d="M111.163,101.682c-7.639-17.193-26.243-26.874-44.699-23.275l10.775,34.02L111.163,101.682z"/>
			</g>
			
				<rect x="124.841" y="66.823" transform="matrix(0.9533 -0.302 0.302 0.9533 -13.0755 52.2225)" fill="#41CABE" width="75.068" height="3.161"/>
			
				<rect x="128.198" y="78.136" transform="matrix(0.9533 -0.302 0.302 0.9533 -16.5505 52.3694)" fill="#41CABE" width="65.829" height="3.161"/>
			
				<rect x="131.654" y="90.089" transform="matrix(0.9533 -0.302 0.302 0.9533 -20.3129 51.9365)" fill="#41CABE" width="52.354" height="3.161"/>
			
				<rect x="121.004" y="53.167" transform="matrix(0.9533 -0.302 0.302 0.9533 -10.2079 48.5696)" fill="#2E9985" width="61.978" height="8.269"/>
		</g>
		<g>
			<circle fill="#41CABE" cx="107.362" cy="222.982" r="40.506"/>
			<path fill="#303E51" d="M145.977,210.751c4.822,15.222,0.184,31.178-10.623,41.521l-27.993-29.29L145.977,210.751z"/>
			<path fill="#F3CC65" d="M107.361,222.982c0,0-3.348-40.616,1.031-40.505c10.092,0.256,19.691,4.304,26.909,11.165
				C140.094,198.2,107.361,222.982,107.361,222.982z"/>
			<path fill="#2E9985" d="M107.361,222.982l-12.231-38.616c7.92-2.508,16.038-2.457,23.461-0.309L107.361,222.982z"/>
			<path fill="#F36D6D" d="M145.977,210.751l-38.616,12.231l25.034-31.851C138.581,195.985,143.423,202.688,145.977,210.751z"/>
			
				<rect x="156.292" y="168.39" transform="matrix(0.9533 -0.302 0.302 0.9533 -44.6808 56.5961)" fill="#41CABE" width="8.854" height="8.855"/>
			
				<rect x="167.192" y="156.598" transform="matrix(0.9533 -0.302 0.302 0.9533 -39.3625 67.416)" fill="#41CABE" width="62.364" height="8.855"/>
			
				<rect x="172.084" y="172.043" transform="matrix(0.9533 -0.302 0.302 0.9533 -43.7976 69.614)" fill="#41CABE" width="62.364" height="8.853"/>
			
				<rect x="176.976" y="187.487" transform="matrix(0.9533 -0.302 0.302 0.9533 -48.2328 71.812)" fill="#41CABE" width="62.364" height="8.855"/>
			
				<rect x="181.868" y="202.93" transform="matrix(0.9533 -0.302 0.302 0.9533 -52.6679 74.01)" fill="#41CABE" width="62.364" height="8.856"/>
			
				<rect x="186.76" y="218.375" transform="matrix(0.9533 -0.302 0.302 0.9533 -57.1031 76.2081)" fill="#41CABE" width="62.364" height="8.855"/>
			
				<rect x="161.184" y="183.835" transform="matrix(0.9533 -0.302 0.302 0.9533 -49.116 58.7941)" fill="#303E51" width="8.854" height="8.854"/>
			
				<rect x="170.967" y="214.723" transform="matrix(0.9533 -0.302 0.302 0.9533 -57.9863 63.1901)" fill="#2E9985" width="8.854" height="8.856"/>
			
				<rect x="166.075" y="199.279" transform="matrix(0.9533 -0.302 0.302 0.9533 -53.5512 60.9921)" fill="#F36D6D" width="8.854" height="8.855"/>
			
				<rect x="175.859" y="230.168" transform="matrix(0.9533 -0.302 0.302 0.9533 -62.4214 65.3881)" fill="#F3CC65" width="8.854" height="8.855"/>
		</g>
		
			<rect x="64.379" y="273.392" transform="matrix(0.9533 -0.302 0.302 0.9533 -77.0078 66.3327)" fill="#2E9985" width="223.338" height="17.708"/>
		
			<rect x="93.705" y="297.707" transform="matrix(0.9533 -0.302 0.302 0.9533 -82.0814 68.2818)" fill="#41CABE" width="172.221" height="3.849"/>
		
			<rect x="88.357" y="280.822" transform="matrix(0.9533 -0.302 0.302 0.9533 -77.2327 65.8788)" fill="#41CABE" width="172.221" height="3.849"/>
		
			<rect x="96.146" y="305.414" transform="matrix(0.9533 -0.302 0.302 0.9533 -84.2946 69.3786)" fill="#41CABE" width="172.221" height="3.849"/>
		
			<rect x="98.587" y="313.121" transform="matrix(0.9533 -0.302 0.302 0.9533 -86.5078 70.4755)" fill="#41CABE" width="172.221" height="3.849"/>
	</g>
	<g>
		<g>
			<path fill="#303E51" d="M99.854,478.149l140.315-44.143l-62.475-200.507l-142.22,44.314l62.618,200.965
				C98.67,478.552,99.255,478.338,99.854,478.149z"/>
			
				<rect x="62.825" y="279.125" transform="matrix(0.9547 -0.2975 0.2975 0.9547 -82.1255 48.5869)" fill="#4B647C" width="111.488" height="29.981"/>
			<polygon fill="#31313A" points="229,437.521 191.32,316.59 71.46,353.937 109.242,475.196 			"/>
			<g>
				<g>
					
						<rect x="78.407" y="353.6" transform="matrix(0.9547 -0.2975 0.2975 0.9547 -103.3052 42.4371)" fill="#DAA318" width="18.733" height="14.053"/>
					
						<rect x="102.557" y="346.075" transform="matrix(0.9547 -0.2975 0.2975 0.9547 -99.9733 49.2809)" fill="#DAA318" width="18.737" height="14.053"/>
				</g>
				<g>
					
						<rect x="85.932" y="377.748" transform="matrix(0.9547 -0.2975 0.2975 0.9547 -110.1485 45.7688)" fill="#303E51" width="18.733" height="14.056"/>
					
						<rect x="109.409" y="370.432" transform="matrix(0.9547 -0.2975 0.2975 0.9547 -106.9094 52.4221)" fill="#303E51" width="18.737" height="14.056"/>
					
						<rect x="132.89" y="363.116" transform="matrix(0.9547 -0.2975 0.2975 0.9547 -103.67 59.0757)" fill="#303E51" width="18.735" height="14.056"/>
					
						<rect x="156.369" y="355.8" transform="matrix(0.9547 -0.2975 0.2975 0.9547 -100.4307 65.7292)" fill="#303E51" width="18.737" height="14.056"/>
					
						<rect x="179.849" y="348.484" transform="matrix(0.9547 -0.2975 0.2975 0.9547 -97.1913 72.383)" fill="#303E51" width="18.737" height="14.056"/>
				</g>
				<g>
					
						<rect x="164.103" y="380.624" transform="matrix(0.9547 -0.2975 0.2975 0.9547 -107.465 69.1539)" fill="#303E51" width="18.737" height="14.056"/>
					
						<rect x="187.584" y="373.308" transform="matrix(0.9547 -0.2975 0.2975 0.9547 -104.2255 75.8076)" fill="#303E51" width="18.737" height="14.056"/>
					
						<rect x="93.667" y="402.572" transform="matrix(0.9547 -0.2975 0.2975 0.9547 -117.1828 49.1935)" fill="#4B647C" width="18.733" height="14.056"/>
					
						<rect x="117.144" y="395.256" transform="matrix(0.9547 -0.2975 0.2975 0.9547 -113.9436 55.8468)" fill="#4B647C" width="18.737" height="14.056"/>
					
						<rect x="140.625" y="387.94" transform="matrix(0.9547 -0.2975 0.2975 0.9547 -110.7043 62.5004)" fill="#4B647C" width="18.735" height="14.056"/>
				</g>
				<g>
					
						<rect x="171.837" y="405.443" transform="matrix(0.9547 -0.2975 0.2975 0.9547 -114.4982 72.5781)" fill="#303E51" width="18.737" height="14.056"/>
					
						<rect x="195.317" y="398.127" transform="matrix(0.9547 -0.2975 0.2975 0.9547 -111.2588 79.2318)" fill="#303E51" width="18.737" height="14.056"/>
					
						<rect x="101.4" y="427.391" transform="matrix(0.9547 -0.2975 0.2975 0.9547 -124.216 52.6177)" fill="#4B647C" width="18.733" height="14.056"/>
					
						<rect x="124.877" y="420.075" transform="matrix(0.9547 -0.2975 0.2975 0.9547 -120.9769 59.2709)" fill="#4B647C" width="18.737" height="14.056"/>
					
						<rect x="148.358" y="412.759" transform="matrix(0.9547 -0.2975 0.2975 0.9547 -117.7375 65.9245)" fill="#4B647C" width="18.735" height="14.056"/>
				</g>
				<g>
					
						<rect x="179.571" y="430.267" transform="matrix(0.9547 -0.2975 0.2975 0.9547 -121.5325 76.0027)" fill="#BB4C3D" width="18.737" height="14.056"/>
					
						<rect x="203.052" y="422.951" transform="matrix(0.9547 -0.2975 0.2975 0.9547 -118.2931 82.6565)" fill="#303E51" width="18.737" height="14.056"/>
					
						<rect x="109.135" y="452.215" transform="matrix(0.9547 -0.2975 0.2975 0.9547 -131.2503 56.0424)" fill="#4B647C" width="18.733" height="14.056"/>
					
						<rect x="132.612" y="444.899" transform="matrix(0.9547 -0.2975 0.2975 0.9547 -128.0112 62.6956)" fill="#4B647C" width="18.737" height="14.056"/>
					
						<rect x="156.093" y="437.583" transform="matrix(0.9547 -0.2975 0.2975 0.9547 -124.7718 69.3492)" fill="#4B647C" width="18.735" height="14.056"/>
				</g>
			</g>
		</g>
		<g>
			<path fill="#FFFFFF" d="M108.456,354.749l0.494-0.027c0.021,0.406-0.063,0.746-0.25,1.022c-0.189,0.276-0.462,0.47-0.823,0.583
				c-0.373,0.116-0.7,0.133-0.981,0.055c-0.281-0.079-0.527-0.244-0.739-0.494c-0.212-0.25-0.37-0.54-0.473-0.871
				c-0.112-0.36-0.14-0.696-0.086-1.008c0.053-0.31,0.186-0.576,0.396-0.794c0.212-0.218,0.47-0.375,0.774-0.469
				c0.347-0.108,0.665-0.112,0.955-0.008c0.292,0.103,0.533,0.299,0.725,0.59l-0.418,0.247c-0.158-0.229-0.332-0.375-0.52-0.442
				c-0.19-0.067-0.399-0.064-0.631,0.008c-0.264,0.082-0.468,0.216-0.606,0.398c-0.139,0.183-0.211,0.394-0.216,0.631
				c-0.006,0.238,0.026,0.471,0.097,0.698c0.092,0.295,0.215,0.539,0.369,0.731c0.156,0.193,0.34,0.315,0.554,0.367
				c0.216,0.052,0.428,0.046,0.639-0.02c0.257-0.08,0.45-0.22,0.582-0.424C108.431,355.316,108.484,355.06,108.456,354.749z"/>
			<path fill="#FFFFFF" d="M109.866,355.64l-1.078-3.46l2.502-0.78l0.127,0.407l-2.044,0.637l0.331,1.061l1.914-0.596l0.126,0.405
				l-1.914,0.596l0.367,1.177l2.123-0.662l0.127,0.409L109.866,355.64z"/>
			<path fill="#FFFFFF" d="M112.726,354.815l-0.112-3.892l0.341-0.106l0.114,3.891L112.726,354.815z"/>
			<path fill="#FFFFFF" d="M116.515,352.238l0.495-0.028c0.019,0.407-0.063,0.746-0.25,1.022c-0.189,0.276-0.462,0.47-0.821,0.582
				c-0.374,0.117-0.701,0.134-0.982,0.055c-0.281-0.079-0.529-0.244-0.739-0.494c-0.212-0.25-0.37-0.54-0.473-0.871
				c-0.112-0.36-0.141-0.695-0.087-1.007c0.056-0.311,0.188-0.576,0.398-0.795c0.211-0.218,0.469-0.374,0.774-0.469
				c0.345-0.108,0.665-0.112,0.955-0.008c0.292,0.103,0.534,0.299,0.725,0.59l-0.418,0.247c-0.158-0.229-0.333-0.375-0.52-0.442
				c-0.189-0.067-0.399-0.064-0.63,0.008c-0.266,0.083-0.469,0.216-0.609,0.399c-0.138,0.183-0.211,0.394-0.216,0.631
				c-0.005,0.238,0.027,0.47,0.098,0.698c0.092,0.295,0.215,0.538,0.37,0.731c0.153,0.193,0.338,0.316,0.552,0.367
				c0.216,0.052,0.428,0.046,0.639-0.02c0.255-0.08,0.451-0.221,0.582-0.424C116.49,352.805,116.543,352.549,116.515,352.238z"/>
		</g>
		<g>
			<path fill="#FFFFFF" d="M181.428,414.194l-0.422-1.354l-1.345,0.419l-0.177-0.568l1.345-0.419l-0.419-1.345l0.575-0.179
				l0.419,1.345l1.344-0.419l0.177,0.568l-1.344,0.419l0.422,1.354L181.428,414.194z"/>
		</g>
		<g>
			<path fill="#FFFFFF" d="M172.354,389.965l0.729-2.269l-1.748-1.342l0.76-0.237l0.812,0.668c0.152,0.129,0.276,0.236,0.374,0.324
				c0.052-0.178,0.102-0.339,0.151-0.48l0.34-1.035l0.725-0.226l-0.713,2.072l1.923,1.48l-0.746,0.232l-1.082-0.884l-0.289-0.239
				l-0.5,1.706L172.354,389.965z"/>
		</g>
		<g>
			<path fill="#FFFFFF" d="M100.82,408.624l-0.301-0.965l5.299-1.651l0.243,0.78c-0.348,0.719-0.635,1.617-0.861,2.694
				c-0.224,1.082-0.325,2.149-0.303,3.21c0.013,0.747,0.118,1.538,0.317,2.371l-1.033,0.322c-0.189-0.65-0.307-1.465-0.348-2.454
				c-0.041-0.987,0.031-1.976,0.221-2.964c0.187-0.987,0.445-1.853,0.776-2.592L100.82,408.624z"/>
		</g>
		<g>
			<path fill="#FFFFFF" d="M120.671,463.267l-1.005,0.313l-1.997-6.408c-0.171,0.308-0.415,0.638-0.736,0.991
				c-0.32,0.353-0.619,0.635-0.896,0.849l-0.303-0.972c0.48-0.44,0.871-0.914,1.174-1.42c0.303-0.507,0.488-0.966,0.553-1.373
				l0.648-0.202L120.671,463.267z"/>
		</g>
		<g>
			<path fill="#FFFFFF" d="M112.515,439.07l-0.611-1.961l-3.555,1.108l-0.287-0.922l2.087-6.471l0.82-0.256l1.653,5.306l1.104-0.344
				l0.287,0.922l-1.104,0.344l0.611,1.961L112.515,439.07z M111.616,436.187l-1.15-3.692l-1.414,4.491L111.616,436.187z"/>
		</g>
		<g>
			<path fill="#FFFFFF" d="M132.181,430.589l1.025-0.418c0.239,0.49,0.541,0.819,0.906,0.99c0.367,0.17,0.748,0.192,1.151,0.066
				c0.486-0.151,0.837-0.46,1.057-0.931c0.223-0.47,0.24-1.005,0.052-1.608c-0.178-0.573-0.482-0.975-0.906-1.206
				c-0.425-0.232-0.897-0.266-1.418-0.104c-0.324,0.101-0.595,0.266-0.81,0.494c-0.215,0.227-0.358,0.482-0.435,0.762l-0.982,0.172
				l-0.518-4.453l4.071-1.269l0.299,0.961l-3.266,1.018l0.245,2.339c0.382-0.496,0.845-0.827,1.387-0.996
				c0.714-0.222,1.393-0.163,2.041,0.177c0.643,0.343,1.09,0.903,1.332,1.681c0.231,0.74,0.213,1.45-0.049,2.125
				c-0.32,0.826-0.934,1.38-1.843,1.664c-0.744,0.232-1.417,0.213-2.018-0.059C132.902,431.728,132.461,431.257,132.181,430.589z"/>
		</g>
		<g>
			<path fill="#FFFFFF" d="M159.768,417.563l-0.976,0.389c-0.212-0.367-0.427-0.614-0.645-0.742c-0.36-0.203-0.742-0.242-1.14-0.118
				c-0.322,0.1-0.574,0.279-0.759,0.533c-0.247,0.331-0.391,0.743-0.435,1.243c-0.044,0.5,0.057,1.163,0.304,1.984
				c0.125-0.444,0.339-0.81,0.633-1.098c0.296-0.289,0.633-0.492,1.015-0.611c0.673-0.21,1.32-0.139,1.945,0.207
				c0.624,0.346,1.058,0.91,1.302,1.693c0.16,0.514,0.197,1.025,0.114,1.534c-0.085,0.513-0.283,0.945-0.598,1.299
				c-0.314,0.356-0.716,0.609-1.21,0.763c-0.835,0.26-1.618,0.165-2.338-0.284c-0.719-0.454-1.299-1.386-1.74-2.802
				c-0.493-1.584-0.56-2.824-0.199-3.725c0.314-0.785,0.905-1.312,1.768-1.581c0.643-0.2,1.229-0.185,1.751,0.049
				C159.087,416.529,159.488,416.951,159.768,417.563z M156.763,422.372c0.108,0.346,0.285,0.655,0.53,0.926
				c0.245,0.269,0.528,0.446,0.843,0.53c0.315,0.083,0.619,0.079,0.91-0.011c0.423-0.132,0.734-0.416,0.934-0.855
				c0.2-0.438,0.207-0.949,0.023-1.539c-0.177-0.566-0.467-0.965-0.87-1.196c-0.403-0.233-0.833-0.276-1.289-0.134
				c-0.456,0.142-0.79,0.424-1.005,0.849C156.625,421.365,156.599,421.844,156.763,422.372z"/>
		</g>
		<g>
			<path fill="#FFFFFF" d="M144.758,454.701l0.301,0.967l-5.413,1.687c-0.081-0.241-0.115-0.484-0.098-0.735
				c0.022-0.412,0.129-0.844,0.321-1.297c0.192-0.452,0.502-1.001,0.928-1.649c0.664-1.006,1.087-1.773,1.265-2.296
				c0.181-0.524,0.21-0.975,0.091-1.356c-0.124-0.399-0.37-0.69-0.739-0.875c-0.371-0.184-0.783-0.206-1.242-0.063
				c-0.484,0.151-0.826,0.416-1.026,0.798c-0.201,0.38-0.222,0.828-0.067,1.344l-1.066,0.216c-0.169-0.793-0.086-1.462,0.251-2.012
				c0.335-0.546,0.893-0.941,1.67-1.184c0.787-0.245,1.475-0.221,2.069,0.071c0.594,0.293,0.992,0.76,1.193,1.405
				c0.102,0.327,0.134,0.671,0.099,1.03c-0.036,0.358-0.155,0.761-0.355,1.206c-0.202,0.448-0.571,1.09-1.102,1.926
				c-0.445,0.694-0.723,1.157-0.841,1.392c-0.116,0.233-0.199,0.459-0.253,0.675L144.758,454.701z"/>
		</g>
		<g>
			<path fill="#FFFFFF" d="M163.121,447.669l0.961-0.447c0.294,0.533,0.619,0.883,0.974,1.049c0.357,0.164,0.733,0.186,1.133,0.061
				c0.473-0.147,0.82-0.436,1.044-0.866c0.222-0.428,0.26-0.885,0.109-1.37c-0.143-0.46-0.414-0.794-0.809-1
				c-0.395-0.207-0.826-0.236-1.29-0.091c-0.193,0.06-0.417,0.169-0.676,0.334l-0.162-0.92c0.068-0.012,0.126-0.025,0.166-0.038
				c0.428-0.133,0.777-0.367,1.05-0.695c0.272-0.331,0.337-0.728,0.192-1.194c-0.115-0.368-0.334-0.635-0.66-0.8
				c-0.323-0.164-0.682-0.184-1.077-0.061c-0.392,0.122-0.678,0.346-0.863,0.673c-0.184,0.327-0.239,0.748-0.159,1.263l-1.061,0.134
				c-0.086-0.712,0.03-1.322,0.35-1.828c0.32-0.506,0.804-0.86,1.453-1.062c0.446-0.139,0.888-0.172,1.323-0.096
				c0.436,0.072,0.804,0.245,1.108,0.515c0.303,0.269,0.512,0.591,0.627,0.961c0.111,0.356,0.117,0.705,0.015,1.057
				c-0.097,0.35-0.306,0.668-0.625,0.955c0.518-0.039,0.968,0.075,1.343,0.342c0.378,0.269,0.65,0.668,0.814,1.196
				c0.223,0.716,0.151,1.403-0.216,2.062c-0.364,0.661-0.947,1.113-1.745,1.362c-0.716,0.223-1.381,0.195-1.99-0.085
				C163.843,448.801,163.399,448.33,163.121,447.669z"/>
		</g>
		<g>
			<path fill="#FFFFFF" d="M125.262,403.943c-0.466-0.024-0.842-0.145-1.133-0.364c-0.288-0.221-0.495-0.528-0.618-0.923
				c-0.185-0.594-0.126-1.162,0.175-1.702c0.302-0.538,0.808-0.92,1.519-1.142c0.714-0.222,1.354-0.192,1.922,0.087
				c0.562,0.279,0.94,0.716,1.126,1.312c0.118,0.38,0.123,0.742,0.01,1.084c-0.112,0.344-0.347,0.652-0.706,0.933
				c0.555,0.008,1.019,0.152,1.396,0.434c0.375,0.286,0.643,0.68,0.8,1.186c0.218,0.7,0.154,1.367-0.192,1.995
				c-0.348,0.632-0.924,1.073-1.734,1.326c-0.808,0.252-1.533,0.214-2.176-0.11c-0.645-0.324-1.08-0.844-1.302-1.558
				c-0.166-0.533-0.168-1.021-0.012-1.464C124.493,404.594,124.801,404.23,125.262,403.943z M125.383,406.185
				c0.09,0.287,0.244,0.543,0.464,0.768c0.218,0.226,0.485,0.371,0.799,0.434c0.314,0.063,0.626,0.047,0.935-0.049
				c0.481-0.15,0.828-0.427,1.045-0.835c0.218-0.407,0.25-0.847,0.101-1.325c-0.15-0.482-0.437-0.833-0.857-1.049
				c-0.42-0.216-0.872-0.248-1.358-0.096c-0.471,0.147-0.815,0.425-1.029,0.834C125.271,405.276,125.236,405.716,125.383,406.185z
				 M124.529,402.303c0.121,0.387,0.344,0.666,0.671,0.833c0.327,0.168,0.687,0.191,1.085,0.067c0.39-0.121,0.669-0.342,0.84-0.664
				c0.17-0.32,0.203-0.658,0.093-1.012c-0.115-0.369-0.341-0.64-0.675-0.811c-0.331-0.172-0.69-0.199-1.067-0.081
				c-0.387,0.121-0.665,0.343-0.842,0.668C124.457,401.626,124.422,401.961,124.529,402.303z"/>
		</g>
		<g>
			<path fill="#FFFFFF" d="M148.384,399.535l0.936-0.391c0.225,0.429,0.485,0.71,0.779,0.841c0.294,0.134,0.62,0.145,0.982,0.032
				c0.311-0.097,0.56-0.253,0.749-0.467s0.32-0.462,0.396-0.745c0.076-0.283,0.1-0.642,0.073-1.075
				c-0.024-0.435-0.101-0.859-0.231-1.276c-0.014-0.044-0.037-0.111-0.068-0.2c-0.1,0.383-0.295,0.729-0.58,1.036
				c-0.287,0.308-0.634,0.525-1.039,0.651c-0.679,0.211-1.327,0.145-1.951-0.2c-0.622-0.345-1.059-0.921-1.31-1.726
				c-0.258-0.829-0.221-1.575,0.112-2.234c0.331-0.658,0.864-1.105,1.601-1.334c0.534-0.166,1.065-0.174,1.595-0.024
				c0.533,0.149,0.994,0.455,1.387,0.912c0.396,0.461,0.749,1.193,1.063,2.199c0.326,1.047,0.472,1.915,0.437,2.605
				c-0.032,0.691-0.224,1.269-0.572,1.732c-0.347,0.463-0.823,0.79-1.426,0.978c-0.641,0.2-1.22,0.185-1.736-0.044
				C149.064,400.576,148.665,400.153,148.384,399.535z M151.374,394.637c-0.18-0.578-0.477-0.987-0.889-1.231
				c-0.414-0.242-0.834-0.296-1.267-0.161c-0.448,0.14-0.779,0.442-0.997,0.909c-0.217,0.47-0.235,0.994-0.054,1.574
				c0.163,0.522,0.451,0.896,0.867,1.123c0.415,0.228,0.856,0.269,1.317,0.126c0.463-0.144,0.797-0.428,0.995-0.846
				C151.545,395.712,151.554,395.214,151.374,394.637z"/>
		</g>
		<g>
			<path fill="#FFFFFF" d="M213.945,429.58l-3.265,1.017l-0.177-0.567l3.265-1.017L213.945,429.58z M214.412,431.081l-3.265,1.017
				l-0.177-0.567l3.265-1.017L214.412,431.081z"/>
		</g>
		<g>
			<path fill="#FFFFFF" d="M202.681,406.647l-0.136-0.438l4.023-1.254l0.136,0.438L202.681,406.647z"/>
		</g>
		<g>
			<g>
				<path fill="#FFFFFF" d="M197.58,383.406l-0.215-0.691l0.691-0.215l0.215,0.691L197.58,383.406z"/>
			</g>
			<g>
				<path fill="#FFFFFF" d="M196.382,379.802l-0.258-0.829l0.83-0.259l0.258,0.829L196.382,379.802z"/>
			</g>
			<g>
				<path fill="#FFFFFF" d="M195.312,381.986l-0.137-0.439l4.023-1.254l0.137,0.439L195.312,381.986z"/>
			</g>
		</g>
		<g>
			
				<rect x="185.938" y="354.753" transform="matrix(0.9547 -0.2975 0.2975 0.9547 -97.1975 72.2207)" fill="#FFFFFF" width="5.487" height="1.398"/>
			<polygon fill="#FFFFFF" points="192.244,354.341 190.944,356.818 189.768,353.043 			"/>
		</g>
		<g>
			<path fill="#FFFFFF" d="M114.936,381.559l-1.848-5.932l1.182-0.368l2.712,3.763c0.252,0.351,0.436,0.614,0.557,0.79
				c0.001-0.238,0.008-0.587,0.02-1.051l0.134-4.569l1.056-0.329l1.848,5.932l-0.757,0.236l-1.547-4.964l-0.176,5.501l-0.709,0.221
				l-3.288-4.515l1.573,5.05L114.936,381.559z"/>
			<path fill="#FFFFFF" d="M123.002,377.994l-0.507-1.626l-1.616,0.503l-0.212-0.68l1.616-0.503l-0.503-1.615l0.688-0.214
				l0.503,1.615l1.614-0.503l0.212,0.68l-1.614,0.503l0.507,1.626L123.002,377.994z"/>
		</g>
		<g>
			<path fill="#FFFFFF" d="M164.754,365.742l-0.507-1.627l-1.614,0.503l-0.212-0.679l1.614-0.503l-0.503-1.614l0.688-0.214
				l0.503,1.614l1.614-0.503l0.212,0.679l-1.614,0.503l0.507,1.627L164.754,365.742z"/>
			<path fill="#FFFFFF" d="M167.848,365.941l-0.192-6.67l0.584-0.182l0.195,6.669L167.848,365.941z"/>
			<path fill="#FFFFFF" d="M169.826,363.26l-0.228-0.731l2.239-0.698l0.228,0.731L169.826,363.26z"/>
		</g>
		<g>
			<path fill="#FFFFFF" d="M139.805,373.81l-1.848-5.932l1.182-0.368l2.712,3.763c0.252,0.351,0.438,0.614,0.558,0.79
				c0-0.237,0.007-0.587,0.018-1.05l0.134-4.569l1.056-0.329l1.848,5.932l-0.757,0.236l-1.547-4.964l-0.176,5.501l-0.709,0.221
				l-3.289-4.515l1.573,5.05L139.805,373.81z"/>
			<path fill="#FFFFFF" d="M145.8,369.989l-0.228-0.732l2.239-0.698l0.228,0.732L145.8,369.989z"/>
		</g>
		<g>
			<g>
				<g>
					<path fill="#FFFFFF" d="M91.79,388.607l-1.848-5.931l1.182-0.368l2.713,3.762c0.25,0.351,0.436,0.614,0.556,0.79
						c0-0.237,0.005-0.587,0.018-1.05l0.136-4.569l1.056-0.329l1.848,5.931l-0.758,0.236l-1.547-4.966l-0.176,5.502l-0.709,0.221
						l-3.288-4.515l1.573,5.049L91.79,388.607z"/>
				</g>
				<g>
					<path fill="#FFFFFF" d="M97.167,383.367l-0.836-2.683l1.191-0.371c0.238-0.074,0.428-0.108,0.568-0.099
						c0.139,0.01,0.265,0.064,0.378,0.164c0.111,0.098,0.192,0.222,0.238,0.37c0.059,0.19,0.047,0.37-0.035,0.538
						c-0.083,0.17-0.247,0.311-0.494,0.427c0.107,0.016,0.193,0.039,0.257,0.066c0.132,0.064,0.267,0.152,0.405,0.266l0.694,0.585
						l-0.446,0.139l-0.529-0.449c-0.154-0.128-0.278-0.225-0.372-0.289c-0.094-0.064-0.172-0.106-0.236-0.123
						c-0.063-0.018-0.124-0.026-0.184-0.021c-0.043,0.003-0.109,0.02-0.201,0.049l-0.411,0.128l0.371,1.191L97.167,383.367z
						 M97.056,381.757l0.763-0.238c0.162-0.051,0.284-0.107,0.365-0.169c0.082-0.06,0.135-0.137,0.158-0.225
						c0.026-0.088,0.024-0.177-0.003-0.263c-0.04-0.128-0.118-0.218-0.235-0.271c-0.117-0.052-0.275-0.048-0.475,0.015l-0.848,0.264
						L97.056,381.757z"/>
				</g>
			</g>
			<g>
				<path fill="#FFFFFF" d="M99.782,385.036l0.382-0.021c0.018,0.314-0.048,0.578-0.193,0.792c-0.146,0.215-0.36,0.363-0.638,0.45
					c-0.289,0.09-0.544,0.106-0.761,0.045c-0.217-0.062-0.408-0.189-0.574-0.383c-0.165-0.195-0.285-0.42-0.365-0.675
					c-0.087-0.279-0.109-0.54-0.068-0.782c0.043-0.24,0.145-0.445,0.306-0.616c0.164-0.169,0.366-0.29,0.601-0.364
					c0.269-0.084,0.517-0.086,0.741-0.007c0.226,0.079,0.413,0.232,0.563,0.457l-0.324,0.191c-0.124-0.176-0.258-0.289-0.403-0.341
					c-0.147-0.053-0.309-0.051-0.488,0.005c-0.206,0.064-0.364,0.167-0.471,0.309c-0.11,0.143-0.165,0.306-0.17,0.489
					c-0.003,0.185,0.023,0.364,0.078,0.541c0.072,0.23,0.166,0.418,0.284,0.567c0.12,0.15,0.264,0.245,0.431,0.285
					c0.167,0.04,0.331,0.035,0.495-0.016c0.197-0.061,0.349-0.172,0.451-0.328C99.762,385.474,99.804,385.275,99.782,385.036z"/>
			</g>
		</g>
		<g>
			<path fill="#E0E0E0" d="M109.836,300.06l-2.449,0.763c-0.23,0.012-0.394-0.085-0.494-0.293l0.601-0.456l1.96-0.611
				L109.836,300.06z M106.86,300.362l-0.449-2.189l0.128-0.219l0.594,0.351l0.327,1.6L106.86,300.362z M106.561,295.529l0.329,1.599
				l-0.387,0.658l-0.196-0.119l-0.45-2.187L106.561,295.529z M108.485,294.751l-1.95,0.608l-0.705-0.049
				c0.008-0.242,0.116-0.425,0.322-0.548l2.44-0.76L108.485,294.751z M109.64,296.987l0.198,0.117l0.484,2.357
				c-0.008,0.242-0.116,0.423-0.324,0.548l-0.382-0.597l-0.363-1.768L109.64,296.987z M109.012,296.467l-0.361-1.768l0.105-0.749
				c0.229-0.012,0.394,0.086,0.496,0.293l0.483,2.356l-0.128,0.22L109.012,296.467z"/>
			<path fill="#E0E0E0" d="M113.558,295.767l0.198,0.117l0.484,2.357c-0.008,0.242-0.116,0.423-0.322,0.547l-0.384-0.597
				l-0.361-1.768L113.558,295.767z M112.93,295.246l-0.361-1.768l0.105-0.749c0.229-0.012,0.394,0.086,0.496,0.293l0.483,2.356
				l-0.129,0.22L112.93,295.246z"/>
			<path fill="#E0E0E0" d="M120.691,296.678l-2.693,0.839c-0.228,0.011-0.394-0.085-0.494-0.293l0.601-0.456l2.204-0.687
				L120.691,296.678z M117.469,297.056l-0.449-2.189l0.128-0.219l0.593,0.352l0.329,1.6L117.469,297.056z M119.097,291.445
				l-1.952,0.608l-0.705-0.049c0.008-0.242,0.116-0.425,0.322-0.548l2.44-0.76L119.097,291.445z M119.674,293.414l0.396,0.233
				l-0.257,0.439l-2.123,0.662l-0.396-0.236l0.258-0.437L119.674,293.414z M119.622,293.161l-0.361-1.768l0.105-0.749
				c0.229-0.012,0.394,0.086,0.496,0.293l0.483,2.356l-0.129,0.22L119.622,293.161z"/>
			<path fill="#E0E0E0" d="M127.138,294.669l-2.447,0.763c-0.229,0.012-0.394-0.085-0.495-0.293l0.601-0.456l1.96-0.611
				L127.138,294.669z M125.789,289.359l-1.95,0.608l-0.705-0.049c0.007-0.242,0.114-0.424,0.321-0.548l2.441-0.761L125.789,289.359z
				 M126.366,291.329l0.396,0.233l-0.257,0.439l-2.122,0.661l-0.397-0.236l0.258-0.437L126.366,291.329z M126.942,291.596
				l0.198,0.117l0.484,2.357c-0.008,0.242-0.116,0.423-0.322,0.547l-0.384-0.596l-0.362-1.768L126.942,291.596z M126.314,291.076
				l-0.363-1.767l0.107-0.75c0.229-0.012,0.394,0.086,0.496,0.293l0.483,2.356l-0.128,0.22L126.314,291.076z"/>
			<path fill="#E0E0E0" d="M130.505,287.801l0.379,1.852l-0.385,0.658l-0.198-0.118l-0.5-2.44L130.505,287.801z M133.058,289.244
				l0.396,0.233l-0.257,0.439l-2.122,0.661l-0.397-0.236l0.258-0.437L133.058,289.244z M133.634,289.511l0.198,0.117l0.484,2.357
				c-0.008,0.242-0.116,0.423-0.322,0.547l-0.382-0.597l-0.363-1.768L133.634,289.511z M133.006,288.991l-0.363-1.767l0.108-0.75
				c0.228-0.012,0.392,0.086,0.494,0.294l0.483,2.356l-0.128,0.22L133.006,288.991z"/>
			<path fill="#E0E0E0" d="M140.524,290.498l-2.449,0.763c-0.23,0.012-0.394-0.085-0.495-0.293l0.602-0.457l1.958-0.61
				L140.524,290.498z M137.249,285.967l0.327,1.6l-0.385,0.658l-0.198-0.118l-0.448-2.187L137.249,285.967z M139.418,285.113
				l-2.195,0.684l-0.705-0.049c0.008-0.242,0.114-0.424,0.321-0.548l2.686-0.837L139.418,285.113z M139.751,287.158l0.395,0.234
				l-0.257,0.439l-2.122,0.661l-0.397-0.236l0.259-0.438L139.751,287.158z M140.326,287.426l0.198,0.117l0.484,2.357
				c-0.008,0.242-0.116,0.423-0.323,0.547l-0.382-0.597l-0.363-1.768L140.326,287.426z"/>
			<path fill="#E0E0E0" d="M147.216,288.413l-2.45,0.763c-0.228,0.011-0.392-0.085-0.494-0.293l0.602-0.457l1.958-0.61
				L147.216,288.413z M144.238,288.715l-0.449-2.189l0.129-0.219l0.593,0.352l0.328,1.6L144.238,288.715z M143.941,283.882
				l0.327,1.6l-0.385,0.658l-0.198-0.118l-0.449-2.187L143.941,283.882z M146.11,283.028l-2.195,0.684l-0.705-0.049
				c0.008-0.242,0.116-0.425,0.321-0.548l2.686-0.837L146.11,283.028z M146.444,285.073l0.395,0.234l-0.257,0.439l-2.122,0.661
				l-0.397-0.236l0.259-0.438L146.444,285.073z M147.018,285.341l0.198,0.117l0.484,2.357c-0.008,0.242-0.116,0.423-0.322,0.547
				l-0.382-0.597l-0.363-1.768L147.018,285.341z"/>
			<path fill="#E0E0E0" d="M150.635,281.796l0.327,1.6l-0.387,0.658l-0.198-0.118l-0.448-2.187L150.635,281.796z M152.557,281.019
				l-1.95,0.608l-0.703-0.05c0.007-0.242,0.114-0.424,0.321-0.548l2.44-0.76L152.557,281.019z M153.712,283.255l0.198,0.117
				l0.483,2.357c-0.008,0.242-0.115,0.423-0.321,0.547l-0.384-0.596l-0.363-1.768L153.712,283.255z M153.084,282.735l-0.363-1.767
				l0.107-0.75c0.229-0.012,0.394,0.086,0.496,0.293l0.483,2.356l-0.128,0.22L153.084,282.735z"/>
			<path fill="#E0E0E0" d="M160.6,284.243l-2.449,0.763c-0.229,0.012-0.392-0.085-0.494-0.293l0.601-0.456l1.96-0.611L160.6,284.243
				z M157.624,284.544l-0.449-2.189l0.128-0.219l0.593,0.352l0.329,1.6L157.624,284.544z M157.325,279.712l0.329,1.599l-0.385,0.658
				l-0.199-0.118l-0.448-2.187L157.325,279.712z M159.25,278.934l-1.95,0.608l-0.703-0.05c0.007-0.242,0.114-0.424,0.321-0.548
				l2.44-0.76L159.25,278.934z M159.828,280.902l0.395,0.234l-0.257,0.439l-2.122,0.661l-0.396-0.236l0.256-0.437L159.828,280.902z
				 M160.404,281.17l0.198,0.117l0.483,2.357c-0.008,0.242-0.115,0.423-0.321,0.547l-0.384-0.597l-0.363-1.768L160.404,281.17z
				 M159.776,280.65l-0.363-1.767l0.107-0.75c0.229-0.012,0.394,0.086,0.496,0.293l0.483,2.356l-0.128,0.22L159.776,280.65z"/>
			<path fill="#E0E0E0" d="M167.292,282.157l-2.449,0.763c-0.23,0.012-0.394-0.085-0.494-0.293l0.601-0.456l1.96-0.611
				L167.292,282.157z M164.017,277.627l0.329,1.599l-0.387,0.658l-0.196-0.119l-0.45-2.187L164.017,277.627z M165.942,276.848
				l-1.949,0.607l-0.705-0.049c0.007-0.242,0.114-0.424,0.321-0.548l2.441-0.761L165.942,276.848z M166.521,278.817l0.395,0.234
				l-0.257,0.439l-2.122,0.661l-0.397-0.236l0.258-0.437L166.521,278.817z M167.096,279.085l0.198,0.117l0.484,2.357
				c-0.008,0.242-0.116,0.423-0.322,0.547l-0.382-0.597l-0.363-1.768L167.096,279.085z M166.469,278.564l-0.363-1.767l0.105-0.749
				c0.229-0.012,0.394,0.086,0.496,0.293l0.483,2.356l-0.128,0.22L166.469,278.564z"/>
		</g>
	</g>
	<g>
		<path fill="#FFFFFF" d="M316.964,162.646c0,0-8.509-1.196-12.246-0.048c-7.188,2.209-11.11,10.22-8.752,17.894
			c2.358,7.674,10.102,12.103,17.29,9.895c3.737-1.148,10.106-6.918,10.106-6.918c3.688-3.342,7.935-2.206,9.749,2.427
			c0.009,0.03,0.009,0.056,0.015,0.086l0.229,0.784l12.011,39.091l-7.824,2.404l0.005,0.016l-36.399,11.184
			c-0.582,0.179-0.975,0.288-1.162,0.339c0.073-0.022,0.184-0.051,0.322-0.081c-0.095,0.026-0.182,0.05-0.243,0.069
			c0.083-0.026,0.212-0.056,0.382-0.097c-0.058,0.021-0.112,0.049-0.169,0.072c-4.964,1.061-8.24-1.598-7.398-6.286
			c0,0,1.468-8.218,0.373-11.78c-2.107-6.858-10.337-10.41-18.386-7.937c-8.047,2.472-12.86,10.031-10.753,16.889
			c1.094,3.562,6.927,9.537,6.927,9.537c3.341,3.427,2.101,7.488-2.659,9.382c-0.096,0.023-0.193,0.033-0.293,0.057l-0.82,0.243
			l-14.839,4.559l0,0l-26.135,8.03l0,0l0.001,0l-12.011-39.091l-0.229-0.785c-0.006-0.03-0.008-0.056-0.016-0.086
			c-1.091-4.847,1.78-8.161,6.704-7.47c0,0,8.512,1.198,12.248,0.05c7.192-2.21,11.11-10.223,8.753-17.897
			c-2.358-7.674-10.097-12.099-17.29-9.89c-3.736,1.148-10.109,6.913-10.109,6.913c-3.612,3.272-7.752,2.243-9.628-2.156
			c0.009,0.029,0.021,0.064,0.029,0.085c-0.009-0.024-0.025-0.066-0.036-0.103c-0.038-0.088-0.079-0.17-0.113-0.259
			c0.02,0.085,0.028,0.164,0.045,0.248c0.015,0.057,0.029,0.112,0.039,0.15c-0.007-0.028-0.02-0.071-0.029-0.111
			c-0.021-0.073-0.053-0.181-0.082-0.283c0.013,0.023-0.031-0.12-0.112-0.386c-0.032-0.104-0.06-0.199-0.098-0.325l-12.943-42.127
			c0.033-0.01,4.611-1.404,7.247-2.207l33.948-10.412c0.052-0.016,0.368-0.113,0.883-0.271c0.08-0.023,0.146-0.041,0.198-0.055
			c-0.037,0.01-0.088,0.023-0.137,0.036c5.486-1.686,32.935-10.119,32.935-10.119l17.871-5.51l-0.005-0.015l17.194-5.283
			c0.623-0.191,8.318-2.576,8.935-2.767l12.944,42.129c0.142,0.462,0.234,0.791,0.293,0.994
			C324.641,160.153,321.791,163.326,316.964,162.646z"/>
		<path fill="#2F84C9" d="M267.496,247.599l-0.821,0.244l-38.881,11.946l-11.39-37.07l-0.197-0.668l-0.01-0.053
			c-0.206-0.915-0.679-3.965,1.884-4.753c0.647-0.199,1.416-0.238,2.287-0.115c0.922,0.131,9.134,1.23,13.243-0.033
			c8.348-2.565,12.945-11.791,10.249-20.565c-2.696-8.775-11.679-13.825-20.027-11.26c-4.109,1.262-10.287,6.783-10.978,7.406
			c-0.65,0.59-1.308,0.989-1.953,1.188c-2.397,0.736-3.693-1.618-4.138-2.665l-0.073-0.166l-0.026,0.008
			c-0.029-0.105-0.187-0.63-0.187-0.63l-12.321-40.102l5.121-1.562l34.837-10.683l0.085-0.023l-0.001-0.003l32.911-10.112
			l19.988-6.163l-0.004-0.013l15.077-4.632c0.435-0.134,4.3-1.33,6.819-2.11l12.322,40.104c0.12,0.392,0.204,0.683,0.262,0.883
			c0.194,1.024,0.446,3.699-1.948,4.435c-0.65,0.2-1.415,0.239-2.285,0.115c-0.923-0.127-9.134-1.227-13.243,0.036
			c-8.348,2.565-12.948,11.789-10.253,20.563c2.696,8.774,11.683,13.827,20.031,11.262c4.109-1.262,10.285-6.785,10.977-7.409
			c0.65-0.59,1.311-0.99,1.958-1.189c2.432-0.747,3.745,1.722,4.17,2.732l0.248,0.852l11.398,37.097l-7.824,2.404l0.005,0.016
			l-34.282,10.533c-0.547,0.168-0.916,0.27-1.089,0.317l0.004,0.014c-1.571,0.259-2.882,0.019-3.642-0.676
			c-0.952-0.871-0.932-2.278-0.744-3.311c0.157-0.894,1.521-8.818,0.317-12.738c-2.445-7.958-11.921-12.135-21.128-9.306
			c-9.199,2.826-14.694,11.603-12.249,19.561c1.204,3.919,6.782,9.71,7.418,10.361c1.036,1.062,1.476,2.19,1.237,3.169
			c-0.253,1.056-1.297,2.031-2.87,2.703C267.721,247.548,267.496,247.599,267.496,247.599z"/>
		<g>
			<path fill="#FFFFFF" d="M233.128,166.206l1.888,0.873c-1.302,2.205-2.963,3.618-4.981,4.238
				c-2.159,0.664-4.234,0.468-6.224-0.587c-1.991-1.054-3.317-2.661-3.98-4.821c-0.662-2.153-0.466-4.227,0.586-6.224
				c1.053-1.996,2.659-3.325,4.818-3.989c2.019-0.62,4.186-0.384,6.502,0.71l-1.067,1.803c-1.735-0.792-3.341-0.961-4.819-0.507
				c-1.599,0.491-2.793,1.479-3.581,2.961c-0.788,1.483-0.936,3.028-0.443,4.632c0.495,1.612,1.485,2.81,2.97,3.594
				c1.485,0.785,3.027,0.931,4.626,0.44C230.902,168.876,232.136,167.835,233.128,166.206z"/>
			<path fill="#FFFFFF" d="M239.702,156.532c1.503-0.462,2.948-0.324,4.336,0.414c1.387,0.738,2.312,1.858,2.774,3.361
				c0.462,1.503,0.326,2.95-0.408,4.339c-0.733,1.39-1.852,2.315-3.355,2.777c-1.497,0.46-2.94,0.322-4.331-0.415
				c-1.39-0.736-2.316-1.856-2.778-3.36c-0.462-1.503-0.324-2.95,0.412-4.34C237.088,157.917,238.205,156.992,239.702,156.532z
				 M238.222,160.312c-0.46,0.873-0.546,1.778-0.258,2.714c0.289,0.942,0.869,1.643,1.738,2.101
				c0.869,0.458,1.775,0.542,2.718,0.252c0.942-0.29,1.645-0.867,2.107-1.735s0.548-1.772,0.259-2.714
				c-0.288-0.936-0.867-1.637-1.738-2.101c-0.871-0.464-1.778-0.552-2.721-0.262C239.384,158.857,238.683,159.438,238.222,160.312z"
				/>
			<path fill="#FFFFFF" d="M250.474,156.987l2.21,7.194l-1.987,0.61l-3.02-9.831l1.987-0.61l0.352,1.147
				c0.07-1.249,0.728-2.065,1.977-2.448c1.064-0.327,2.026-0.209,2.884,0.353c0.859,0.562,1.474,1.41,1.843,2.545l1.964,6.392
				l-1.978,0.608l-1.94-6.315c-0.174-0.567-0.53-0.989-1.068-1.267c-0.538-0.277-1.094-0.328-1.667-0.152
				c-0.567,0.174-0.997,0.523-1.289,1.044C250.585,156.562,250.495,156.806,250.474,156.987z"/>
			<path fill="#FFFFFF" d="M259.753,151.25l-1.133-3.688l1.978-0.608l1.133,3.688l1.768-0.543l0.607,1.978l-1.768,0.543l2.413,7.853
				l-1.977,0.608l-2.413-7.853l-1.768,0.543l-0.607-1.978L259.753,151.25z"/>
			<path fill="#FFFFFF" d="M271.194,156.058c0.421,0.191,1.068,0.153,1.941-0.116c0.942-0.29,1.646-0.868,2.112-1.736
				c0.055-0.115,0.164-0.364,0.324-0.748l2.195,0.099c-0.278,0.818-0.493,1.368-0.643,1.651c-0.737,1.391-1.857,2.316-3.359,2.778
				c-1.497,0.46-2.941,0.322-4.331-0.415c-1.39-0.736-2.316-1.856-2.778-3.359c-0.462-1.503-0.324-2.95,0.412-4.341
				c0.737-1.391,1.854-2.316,3.35-2.776c1.286-0.395,2.533-0.353,3.74,0.127c0.2,0.085,0.4,0.18,0.6,0.286
				c0.083,0.044,0.326,0.189,0.73,0.435l-0.685,1.308L271.194,156.058z M272.622,148.927c-0.276-0.104-0.803-0.036-1.579,0.203
				c-0.936,0.288-1.635,0.867-2.096,1.737c-0.461,0.87-0.547,1.777-0.257,2.719c0.237,0.771,0.477,1.244,0.719,1.42L272.622,148.927
				z"/>
			<path fill="#FFFFFF" d="M280.655,147.714l2.211,7.194l-1.987,0.61l-3.02-9.831l1.987-0.61l0.352,1.147
				c0.069-1.249,0.728-2.065,1.977-2.448c1.063-0.327,2.025-0.209,2.884,0.352c0.859,0.563,1.474,1.411,1.843,2.545l1.964,6.392
				l-1.978,0.608l-1.94-6.315c-0.174-0.567-0.53-0.989-1.069-1.267c-0.538-0.277-1.094-0.328-1.667-0.152
				c-0.567,0.174-0.997,0.523-1.29,1.044C280.765,147.29,280.676,147.533,280.655,147.714z"/>
			<path fill="#FFFFFF" d="M289.934,141.978l-1.133-3.688l1.977-0.608l1.133,3.688l1.767-0.543l0.608,1.978l-1.768,0.543
				l2.413,7.853l-1.978,0.608l-2.413-7.853l-1.768,0.543l-0.607-1.978L289.934,141.978z"/>
		</g>
	</g>
	<g>
		<path fill="#FFFFFF" d="M359.27,177.819c3.566-1.096,9.589-6.756,9.589-6.756c3.485-3.277,7.556-2.095,9.363,2.534
			c0.009,0.029,0.02,0.056,0.031,0.082l0.247,0.776l12.01,39.091l7.461-2.292l0.005,0.016l34.708-10.664
			c0.556-0.171,0.923-0.295,1.096-0.355c-0.063,0.022-0.169,0.061-0.295,0.108c0.093-0.032,0.172-0.059,0.228-0.079
			c-0.073,0.028-0.195,0.071-0.349,0.128c0.058-0.012,0.112-0.017,0.169-0.032c4.482-1.838,5.592-5.845,2.363-9.283
			c0,0-5.661-6.025-6.755-9.586c-2.108-6.861,2.404-14.328,10.077-16.686c7.676-2.359,15.598,1.288,17.706,8.149
			c1.094,3.561-0.205,11.724-0.205,11.724c-0.745,4.679,2.455,7.377,7.229,6.348c0.091-0.04,0.173-0.08,0.265-0.114l0.775-0.25
			l14.148-4.347l0,0l24.924-7.658l-12.007-39.081c0,0-7.932-26.955-9.718-31.659c0.054,0.224-0.037-0.092-0.207-0.644
			l-12.948-42.141c0,0-4.384,1.36-6.904,2.14l-32.357,9.961c-0.051,0.016-0.352,0.108-0.846,0.26
			c-0.071,0.025-0.138,0.047-0.183,0.062c0.035-0.011,0.082-0.028,0.127-0.045c-5.232,1.607-31.405,9.649-31.405,9.649l-17.052,5.22
			l-0.005-0.015l-16.397,5.038c-0.587,0.18-7.934,2.419-8.53,2.6l12.943,42.127c0.142,0.461,0.251,0.789,0.318,0.99
			c0.015,0.036,0.028,0.079,0.041,0.108c-0.015-0.037-0.036-0.092-0.056-0.144c-0.03-0.079-0.068-0.153-0.094-0.229
			c0.019,0.091,0.032,0.181,0.048,0.273c0.011,0.037,0.022,0.081,0.03,0.108c-0.007-0.022-0.016-0.06-0.025-0.089
			c0.942,4.69-1.744,7.812-6.376,7.073c0,0-8.161-1.299-11.727-0.204c-6.857,2.107-10.506,10.031-8.148,17.708
			C344.942,175.412,352.413,179.926,359.27,177.819z"/>
		<path fill="#546E7A" d="M463.311,189.017c-1.604,0.305-2.96,0.066-3.739-0.67c-0.726-0.688-0.996-1.865-0.765-3.32
			c0.14-0.886,1.343-8.758,0.139-12.677c-2.446-7.961-11.573-12.245-20.348-9.55c-8.772,2.695-13.921,11.366-11.475,19.327
			c1.204,3.919,6.616,9.758,7.23,10.413c0.714,0.756,1.503,1.921,1.234,3.166c-0.215,0.994-1.117,1.912-2.489,2.557l-0.003-0.011
			c-0.163,0.056-0.509,0.171-1.03,0.331l-32.687,10.043l-2.026,0.605l-5.44,1.671l-11.39-37.07l-0.318-0.966l-0.037-0.083
			l0.049,0.121c-1.749-4.495-5.473-6.676-9.293-5.502c-1.243,0.382-2.422,1.094-3.514,2.119c-2.193,2.06-6.509,5.586-8.758,6.278
			c-5.733,1.761-12.032-2.134-14.044-8.681c-2.011-6.547,1.015-13.304,6.748-15.066c2.25-0.691,7.8-0.199,10.773,0.271
			c1.477,0.236,2.853,0.163,4.092-0.218c3.758-1.155,5.596-4.827,4.686-9.359l-1.812,0.46l0.379-0.134l1.422-0.381
			c-0.007-0.042-0.013-0.081-0.018-0.118l0.051-0.022l-0.048-0.138c-0.05-0.146-0.15-0.453-0.284-0.888l-12.321-40.103
			c2.404-0.732,6.097-1.857,6.507-1.983l14.638-4.497l1.764-0.526l17.051-5.219l31.385-9.643l0.001,0.004l0.131-0.045l33.148-10.204
			l4.887-1.513l12.434,40.486c0.058,0.188,0.12,0.392,0.213,0.595c1.871,5.077,9.515,31.049,9.597,31.314l11.394,37.084
			l-37.055,11.382l-0.802,0.258C463.45,188.962,463.374,188.991,463.311,189.017z"/>
		<g>
			<path fill="#FFFFFF" d="M383.537,116.942l-1.806,0.555l1.503,4.891l-1.978,0.607l-4.696-15.286l4.337-1.332
				c1.28-0.212,2.474-0.025,3.581,0.562c1.326,0.708,2.208,1.775,2.647,3.202c0.442,1.439,0.314,2.824-0.386,4.154
				c-0.485,0.916-0.899,1.475-1.241,1.678l4.998,4.184l-2.399,0.737L383.537,116.942z M379.148,109.09l1.972,6.42l1.805-0.555
				c0.88-0.27,1.536-0.815,1.97-1.636c0.435-0.82,0.515-1.675,0.241-2.567c-0.272-0.886-0.818-1.544-1.636-1.975
				c-0.819-0.432-1.669-0.512-2.547-0.242L379.148,109.09z"/>
			<path fill="#FFFFFF" d="M394.473,116.499c0.422,0.191,1.068,0.153,1.941-0.116c0.942-0.29,1.647-0.868,2.112-1.736
				c0.056-0.115,0.163-0.364,0.324-0.748l2.195,0.099c-0.279,0.818-0.493,1.368-0.643,1.651c-0.737,1.391-1.857,2.316-3.36,2.778
				c-1.497,0.46-2.94,0.322-4.331-0.415c-1.391-0.736-2.316-1.857-2.778-3.359c-0.462-1.503-0.324-2.95,0.412-4.341
				c0.737-1.39,1.854-2.315,3.35-2.775c1.287-0.395,2.534-0.353,3.74,0.127c0.201,0.085,0.401,0.18,0.601,0.286
				c0.083,0.044,0.326,0.189,0.729,0.435l-0.685,1.308L394.473,116.499z M395.9,109.369c-0.276-0.104-0.802-0.036-1.579,0.203
				c-0.937,0.288-1.636,0.867-2.096,1.737c-0.461,0.87-0.547,1.777-0.257,2.719c0.236,0.771,0.476,1.244,0.718,1.42L395.9,109.369z"
				/>
			<path fill="#FFFFFF" d="M405.495,113.238c0.306,0.157,0.622,0.185,0.947,0.086c0.324-0.1,0.568-0.3,0.73-0.601
				c0.162-0.301,0.191-0.62,0.087-0.957c-0.1-0.325-0.3-0.567-0.6-0.725c-0.208-0.11-0.624-0.251-1.248-0.422
				c-0.833-0.17-1.445-0.358-1.836-0.565c-0.683-0.361-1.137-0.909-1.362-1.641c-0.227-0.739-0.16-1.451,0.201-2.137
				c0.361-0.686,0.91-1.142,1.65-1.369c0.739-0.227,1.43-0.167,2.073,0.179c0.458,0.243,0.801,0.566,1.029,0.969l-1.75,1.144
				c-0.094-0.146-0.17-0.237-0.231-0.274c-0.149-0.079-0.32-0.089-0.511-0.031c-0.191,0.059-0.335,0.177-0.429,0.356
				c-0.095,0.179-0.113,0.364-0.054,0.555c0.058,0.191,0.175,0.333,0.35,0.426c0.156,0.078,0.49,0.188,1.001,0.33
				c0.923,0.191,1.618,0.409,2.083,0.656c0.81,0.434,1.347,1.081,1.611,1.941c0.27,0.879,0.193,1.723-0.231,2.533
				c-0.424,0.81-1.075,1.349-1.954,1.62c-0.872,0.268-1.713,0.185-2.523-0.249c-0.558-0.295-1.002-0.741-1.332-1.337l1.839-1.025
				C405.184,112.975,405.337,113.154,405.495,113.238z"/>
			<path fill="#FFFFFF" d="M414.956,110.206c0.421,0.191,1.068,0.153,1.941-0.116c0.942-0.29,1.646-0.868,2.111-1.736
				c0.056-0.115,0.164-0.364,0.324-0.748l2.196,0.099c-0.279,0.818-0.493,1.368-0.643,1.651c-0.736,1.391-1.857,2.316-3.359,2.778
				c-1.497,0.46-2.94,0.322-4.331-0.415c-1.391-0.736-2.317-1.857-2.779-3.36c-0.461-1.503-0.324-2.95,0.413-4.341
				c0.737-1.39,1.854-2.315,3.35-2.775c1.286-0.395,2.533-0.353,3.74,0.126c0.201,0.085,0.4,0.18,0.6,0.286
				c0.084,0.044,0.326,0.189,0.73,0.435l-0.685,1.308L414.956,110.206z M416.384,103.076c-0.276-0.104-0.802-0.036-1.579,0.203
				c-0.936,0.288-1.635,0.867-2.096,1.737s-0.547,1.776-0.257,2.719c0.237,0.771,0.477,1.244,0.719,1.421L416.384,103.076z"/>
			<path fill="#FFFFFF" d="M430.353,97.905l-0.211-0.688l1.987-0.61l3.023,9.84l-1.987,0.61l-0.379-1.233
				c-0.652,1.281-1.609,2.115-2.869,2.502c-1.504,0.462-2.948,0.326-4.335-0.409c-1.386-0.734-2.31-1.853-2.773-3.356
				c-0.461-1.503-0.325-2.948,0.409-4.334c0.735-1.387,1.854-2.31,3.357-2.772C427.837,97.068,429.096,97.218,430.353,97.905z
				 M431.795,102.596l-0.447-1.452c-0.304-0.582-0.782-1.049-1.434-1.4c-0.872-0.457-1.776-0.541-2.713-0.254
				c-0.942,0.29-1.645,0.868-2.107,1.735c-0.461,0.867-0.548,1.772-0.258,2.715c0.287,0.936,0.866,1.635,1.736,2.096
				c0.87,0.461,1.776,0.547,2.72,0.257c0.936-0.288,1.637-0.865,2.102-1.733C431.736,103.904,431.869,103.25,431.795,102.596z"/>
			<path fill="#FFFFFF" d="M437.391,96.444c0.431-1.226,1.178-2.031,2.238-2.413l0.631,2.054c-0.708,0.259-1.209,0.669-1.506,1.226
				c-0.448,0.835-0.549,1.695-0.304,2.582l1.553,5.054l-1.978,0.608l-3.02-9.83l1.978-0.608L437.391,96.444z"/>
			<path fill="#FFFFFF" d="M451.329,97.776l2.196,0.099c-0.279,0.818-0.493,1.368-0.643,1.651c-0.736,1.391-1.857,2.316-3.359,2.778
				c-1.497,0.46-2.94,0.322-4.331-0.415c-1.391-0.736-2.317-1.857-2.779-3.359c-0.461-1.503-0.324-2.95,0.413-4.341
				c0.737-1.39,1.853-2.315,3.35-2.775c1.503-0.462,2.95-0.324,4.34,0.413c0.283,0.15,0.767,0.479,1.454,0.986l-1.755,1.334
				c-0.35-0.234-0.583-0.382-0.7-0.444c-0.867-0.459-1.771-0.543-2.713-0.254c-0.936,0.288-1.635,0.867-2.096,1.737
				c-0.461,0.87-0.547,1.777-0.257,2.719c0.288,0.936,0.867,1.635,1.737,2.096c0.869,0.461,1.773,0.548,2.709,0.26
				c0.942-0.29,1.647-0.868,2.112-1.736C451.06,98.409,451.168,98.16,451.329,97.776z"/>
			<path fill="#FFFFFF" d="M451.939,84.55l1.987-0.61l2.002,6.516c0.227-1.234,0.866-2.012,1.917-2.335
				c1.051-0.323,2.006-0.203,2.865,0.358c0.859,0.562,1.474,1.41,1.843,2.545l1.964,6.391l-1.978,0.608l-1.94-6.315
				c-0.174-0.567-0.484-1.003-0.93-1.309c-0.446-0.305-1.016-0.352-1.711-0.138c-0.821,0.252-1.323,0.887-1.506,1.906l2.169,7.06
				l-1.987,0.61L451.939,84.55z"/>
		</g>
	</g>
	<g>
		<path fill="#FFFFFF" d="M442.144,227.68c1.116,3.634,6.894,9.784,6.894,9.784c3.36,3.573,2.126,7.76-2.665,9.584l-0.794,0.256
			l-41.878,12.867c0,0,2.481,8.15,2.673,8.776l5.141,16.733l-0.016,0.005l3.387,11.073l1.983,6.456
			c0.084,0.273,0.155,0.504,0.214,0.686c1.83,4.778,6.01,6.005,9.582,2.646c0,0,6.147-5.775,9.784-6.893
			c7-2.151,14.619,2.453,17.025,10.285c2.406,7.83-1.313,15.92-8.313,18.07c-3.637,1.118-11.967-0.213-11.967-0.213
			c-4.85-0.772-7.621,2.6-6.436,7.594c-0.085-0.221-0.135-0.364-0.168-0.46c0.032,0.094,0.079,0.24,0.142,0.435
			c0.002,0.008,0.007,0.015,0.01,0.023l0.255,0.791l3.65,11.881l6.47,21.009c0.796,2.572,2.182,7.043,2.182,7.043l41.877-12.866
			l0.801-0.234c4.988-1.186,8.366,1.586,7.586,6.432c0,0-1.325,8.335-0.209,11.967c2.151,7,10.241,10.721,18.07,8.316
			c7.829-2.405,12.432-10.026,10.282-17.027c-1.116-3.632-6.893-9.785-6.893-9.785c-3.36-3.574-2.127-7.762,2.672-9.583
			c-0.229,0.049-0.376,0.088-0.472,0.118c0.18-0.049,0.568-0.16,1.127-0.331l40.956-12.584l-7.836-25.504l0,0l-4.48-14.565
			c-0.087-0.282-9.753-31.81-9.722-31.717c-0.03-0.09-0.079-0.228-0.14-0.418c-0.004-0.013-0.014-0.025-0.017-0.036l-0.25-0.796
			l-2.424-7.909l-8.412-27.378l0.016-0.005l-2.339-7.612l0.033-0.01l0,0l-40.985,12.592c-0.563,0.173-0.942,0.299-1.123,0.36
			c0.101-0.034,0.244-0.087,0.46-0.168c-4.992,1.181-8.366-1.589-7.593-6.432c0,0,1.33-8.334,0.213-11.968
			c-2.151-7-10.24-10.722-18.072-8.316C444.6,213.057,439.993,220.679,442.144,227.68z"/>
		<path fill="#F26D64" d="M452.979,212.448c6.829-2.098,13.881,1.076,15.723,7.072c0.811,2.638,0.083,8.919-0.27,11.119
			c-0.457,2.869,0.268,5.355,2.043,7.001c1.84,1.706,4.52,2.275,7.577,1.614l0.015,0.048c0.18-0.064,0.527-0.18,1.026-0.333
			l39.159-12.031l1.236,4.023l0.533,1.801l8.412,27.378l2.421,7.91l0.298,0.931c0,0,0.107,0.308,0.137,0.389l0.017-0.049
			c0.084,0.397,0.22,0.84,0.37,1.328c0,0,9.263,30.224,9.307,30.367l4.484,14.566l7.285,23.709l-39.161,12.032
			c-0.492,0.151-0.84,0.249-1.026,0.297l0.014,0.046c-2.905,1.168-4.811,3.15-5.374,5.599c-0.543,2.352,0.253,4.819,2.243,6.933
			c1.521,1.624,5.657,6.417,6.466,9.05c1.843,5.999-2.214,12.585-9.039,14.683c-6.828,2.098-13.883-1.074-15.727-7.073
			c-0.811-2.639-0.076-8.921,0.27-11.119c0.462-2.865-0.261-5.352-2.035-6.997c-1.894-1.756-4.679-2.31-7.838-1.558l-0.897,0.261
			L440.54,373.77l-1.629-5.254l-6.464-21.009l-3.65-11.881l-0.221-0.669l0.014-0.004c-0.642-2.69,0.088-4.636,1.948-5.207
			c0.669-0.205,1.467-0.239,2.359-0.096c0.896,0.145,8.881,1.361,12.816,0.152c7.975-2.45,12.264-11.609,9.558-20.415
			c-2.707-8.809-11.399-13.982-19.374-11.531c-3.935,1.209-9.859,6.701-10.52,7.321c-0.658,0.619-1.337,1.042-2.005,1.247
			c-1.854,0.57-3.549-0.625-4.529-3.194c-0.028-0.091-2.158-7.025-2.158-7.025l-2.841-9.276l-0.536-1.801l-5.141-16.733
			c-0.134-0.438-1.382-4.543-2.131-6.98l40.093-12.318l0.908-0.294c3.038-1.156,5.032-3.176,5.614-5.688
			c0.541-2.361-0.256-4.824-2.247-6.941c-1.52-1.621-5.654-6.415-6.463-9.047C442.1,221.131,446.154,214.544,452.979,212.448z"/>
		<g>
			<path fill="#FFFFFF" d="M422.709,275.323l3.825,12.45l-1.858,0.571l-3.825-12.45l-3.334,1.024l-0.568-1.85l8.526-2.619
				l0.568,1.85L422.709,275.323z"/>
			<path fill="#FFFFFF" d="M433.134,283.466c0.394,0.18,0.999,0.143,1.816-0.108c0.882-0.271,1.54-0.813,1.975-1.625
				c0.052-0.107,0.153-0.34,0.303-0.699l2.053,0.093c-0.26,0.765-0.461,1.28-0.601,1.544c-0.689,1.301-1.737,2.167-3.143,2.599
				c-1.4,0.43-2.751,0.3-4.051-0.389c-1.301-0.689-2.167-1.738-2.599-3.143c-0.432-1.406-0.303-2.759,0.386-4.06
				c0.689-1.301,1.734-2.166,3.134-2.596c1.204-0.37,2.37-0.33,3.499,0.118c0.187,0.079,0.374,0.169,0.561,0.268
				c0.078,0.041,0.305,0.177,0.682,0.406l-0.641,1.224L433.134,283.466z M434.469,276.796c-0.258-0.097-0.751-0.033-1.477,0.19
				c-0.876,0.269-1.529,0.81-1.96,1.625c-0.432,0.814-0.512,1.662-0.241,2.544c0.221,0.721,0.446,1.164,0.672,1.329L434.469,276.796
				z"/>
			<path fill="#FFFFFF" d="M448.507,277.569l2.053,0.093c-0.261,0.765-0.461,1.28-0.601,1.544c-0.689,1.301-1.738,2.167-3.143,2.599
				c-1.4,0.43-2.751,0.301-4.052-0.388c-1.301-0.689-2.167-1.738-2.599-3.143c-0.432-1.406-0.303-2.759,0.386-4.06
				c0.689-1.301,1.734-2.166,3.134-2.597c1.406-0.432,2.759-0.303,4.06,0.386c0.265,0.14,0.718,0.448,1.359,0.922l-1.642,1.248
				c-0.328-0.219-0.546-0.357-0.655-0.415c-0.81-0.429-1.656-0.509-2.538-0.238c-0.876,0.269-1.53,0.811-1.961,1.625
				c-0.431,0.814-0.511,1.662-0.241,2.544c0.269,0.876,0.811,1.529,1.625,1.96c0.814,0.432,1.659,0.513,2.535,0.243
				c0.881-0.271,1.54-0.812,1.975-1.624C448.256,278.162,448.357,277.928,448.507,277.569z"/>
			<path fill="#FFFFFF" d="M449.078,265.197l1.859-0.571l1.872,6.095c0.213-1.154,0.811-1.883,1.794-2.185
				c0.983-0.302,1.877-0.19,2.68,0.335c0.804,0.526,1.379,1.32,1.724,2.381l1.837,5.979l-1.85,0.568l-1.816-5.907
				c-0.163-0.53-0.453-0.938-0.87-1.224c-0.417-0.286-0.95-0.329-1.6-0.129c-0.769,0.236-1.239,0.83-1.409,1.783l2.029,6.604
				l-1.859,0.571L449.078,265.197z"/>
			<path fill="#FFFFFF" d="M463.317,269.106l2.068,6.73l-1.859,0.571l-2.825-9.197l1.859-0.571l0.329,1.073
				c0.066-1.168,0.682-1.931,1.85-2.29c0.995-0.306,1.894-0.196,2.698,0.33c0.804,0.526,1.378,1.32,1.724,2.381l1.837,5.979
				l-1.85,0.568l-1.815-5.907c-0.163-0.53-0.496-0.926-1-1.185c-0.504-0.259-1.023-0.307-1.56-0.142
				c-0.53,0.163-0.932,0.488-1.206,0.977C463.421,268.71,463.337,268.938,463.317,269.106z"/>
			<path fill="#FFFFFF" d="M475.199,261.935c1.406-0.432,2.758-0.303,4.056,0.387c1.298,0.69,2.162,1.739,2.594,3.145
				c0.432,1.406,0.305,2.759-0.381,4.059c-0.686,1.3-1.733,2.166-3.139,2.598c-1.4,0.43-2.751,0.3-4.051-0.389
				c-1.301-0.689-2.167-1.738-2.599-3.143c-0.432-1.406-0.303-2.759,0.386-4.06C472.754,263.231,473.799,262.365,475.199,261.935z
				 M473.816,265.47c-0.431,0.817-0.512,1.663-0.242,2.539c0.271,0.882,0.813,1.537,1.626,1.965
				c0.813,0.428,1.661,0.507,2.542,0.237c0.882-0.271,1.539-0.812,1.971-1.623c0.432-0.811,0.513-1.657,0.242-2.539
				c-0.269-0.876-0.812-1.531-1.626-1.965c-0.815-0.434-1.663-0.516-2.546-0.245C474.902,264.109,474.246,264.653,473.816,265.47z"
				/>
			<path fill="#FFFFFF" d="M482.948,254.781l4.397,14.309l-1.859,0.571l-4.396-14.309L482.948,254.781z"/>
			<path fill="#FFFFFF" d="M491.519,256.921c1.406-0.432,2.758-0.303,4.056,0.387c1.298,0.69,2.162,1.738,2.595,3.145
				c0.432,1.406,0.305,2.759-0.382,4.059c-0.686,1.3-1.733,2.166-3.138,2.598c-1.4,0.43-2.751,0.3-4.052-0.389
				c-1.301-0.689-2.167-1.738-2.599-3.143c-0.432-1.406-0.303-2.759,0.386-4.06C489.074,258.217,490.119,257.351,491.519,256.921z
				 M490.135,260.456c-0.431,0.817-0.511,1.663-0.242,2.539c0.271,0.882,0.813,1.537,1.626,1.965
				c0.813,0.428,1.66,0.507,2.542,0.237c0.881-0.271,1.538-0.812,1.971-1.623c0.432-0.811,0.513-1.657,0.242-2.539
				c-0.269-0.877-0.811-1.531-1.626-1.965c-0.815-0.434-1.663-0.516-2.545-0.245C491.222,259.095,490.566,259.639,490.135,260.456z"
				/>
			<path fill="#FFFFFF" d="M507.156,253.632l-0.195-0.634l1.859-0.571l2.1,6.836c0.549,1.788,0.487,3.317-0.185,4.586
				c-0.725,1.182-1.792,1.988-3.198,2.42c-1.407,0.432-2.742,0.364-4.006-0.207c-0.265-0.14-0.716-0.451-1.353-0.934l1.638-1.227
				c0.326,0.213,0.544,0.349,0.653,0.406c0.816,0.428,1.662,0.507,2.538,0.238c1.471-0.452,2.194-1.73,2.166-3.835
				c-0.233,1.298-1.054,2.163-2.46,2.595c-1.406,0.432-2.753,0.318-4.042-0.343c-1.289-0.661-2.15-1.694-2.582-3.1
				c-0.432-1.406-0.304-2.757,0.383-4.054c0.687-1.297,1.733-2.161,3.14-2.593C504.8,252.851,505.98,252.989,507.156,253.632z
				 M508.067,256.629c-0.288-0.532-0.731-0.956-1.331-1.274c-0.812-0.435-1.659-0.518-2.541-0.247
				c-0.881,0.271-1.538,0.815-1.968,1.632c-0.431,0.817-0.511,1.663-0.242,2.539c0.271,0.882,0.813,1.538,1.628,1.97
				c0.813,0.432,1.661,0.512,2.543,0.241c0.882-0.271,1.538-0.812,1.967-1.622c0.318-0.6,0.448-1.194,0.391-1.783L508.067,256.629z"
				/>
			<path fill="#FFFFFF" d="M517.574,263.186l-1.957,0.602l0.87-5.891l-5.62-6.099l2.082-0.64l3.879,4.315l0.786-5.749l2.073-0.637
				L517.574,263.186z"/>
		</g>
	</g>
</g>
</svg>
