<svg id="Слой_1" data-name="Слой 1" xmlns="http://www.w3.org/2000/svg" xmlns:xlink="http://www.w3.org/1999/xlink" viewBox="0 0 554 443"><defs><style>.cls-1{fill:url(#Безымянный_градиент);}.cls-2{fill:url(#Безымянный_градиент_2);}.cls-3{fill:url(#Безымянный_градиент_3);}.cls-4{fill:url(#Безымянный_градиент_4);}.cls-5{fill:url(#Безымянный_градиент_5);}.cls-6{fill:url(#Безымянный_градиент_6);}.cls-7{fill:#231f20;}.cls-8{fill:url(#Безымянный_градиент_7);}</style><linearGradient id="Безымянный_градиент" x1="192.94" y1="4" x2="368.16" y2="4" gradientTransform="matrix(1, 0, 0, -1, 0, 444)" gradientUnits="userSpaceOnUse"><stop offset="0.01" stop-color="#58595b"/><stop offset="0.28" stop-color="#757679"/><stop offset="0.51" stop-color="#88898d"/><stop offset="1" stop-color="#58595b"/></linearGradient><linearGradient id="Безымянный_градиент_2" x1="278.6" y1="69.5" x2="278.6" y2="-7.05" gradientTransform="matrix(1, 0, 0, -1, 0, 444)" gradientUnits="userSpaceOnUse"><stop offset="0.08" stop-color="#6d6f73"/><stop offset="0.13" stop-color="#97999c"/><stop offset="0.18" stop-color="#cccdce"/><stop offset="0.21" stop-color="#e0e1e2"/><stop offset="0.32" stop-color="#a7a9ac"/><stop offset="0.39" stop-color="#868789"/><stop offset="0.46" stop-color="#636363"/><stop offset="0.53" stop-color="#6e6f6f"/><stop offset="0.65" stop-color="#8b8d8f"/><stop offset="0.74" stop-color="#a6aaad"/></linearGradient><radialGradient id="Безымянный_градиент_3" cx="362.3" cy="-27.29" r="64.19" gradientTransform="matrix(1, 0, 0, -1, 0, 444)" gradientUnits="userSpaceOnUse"><stop offset="0" stop-color="#fff"/><stop offset="1" stop-color="#fff" stop-opacity="0"/></radialGradient><radialGradient id="Безымянный_градиент_4" cx="368.18" cy="-27.29" r="64.19" gradientTransform="translate(564.93 444) rotate(180)" xlink:href="#Безымянный_градиент_3"/><linearGradient id="Безымянный_градиент_5" x1="210.42" y1="1.87" x2="346.94" y2="1.87" gradientTransform="matrix(1, 0, 0, -1, 0, 444)" gradientUnits="userSpaceOnUse"><stop offset="0.01" stop-color="#fff" stop-opacity="0"/><stop offset="0.51" stop-color="#fff"/><stop offset="1" stop-color="#fff" stop-opacity="0"/></linearGradient><linearGradient id="Безымянный_градиент_6" x1="-9.68" y1="69.73" x2="592.57" y2="109.21" gradientTransform="matrix(1, 0, 0, -1, 0, 444)" gradientUnits="userSpaceOnUse"><stop offset="0" stop-color="#78797d"/><stop offset="0.32" stop-color="#737478"/><stop offset="0.49" stop-color="#6d6f73"/><stop offset="1" stop-color="#6d6f73"/></linearGradient><linearGradient id="Безымянный_градиент_7" x1="-9.62" y1="70.74" x2="592.57" y2="110.21" gradientTransform="matrix(1, 0, 0, -1, 0, 444)" gradientUnits="userSpaceOnUse"><stop offset="0" stop-color="#898a8f"/><stop offset="0.05" stop-color="#909196"/><stop offset="0.31" stop-color="#b1b2b6"/><stop offset="0.57" stop-color="#c8cacd"/><stop offset="0.8" stop-color="#d6d8db"/><stop offset="1" stop-color="#dbdde0"/></linearGradient></defs><title>monitor</title><path class="cls-1" d="M194,437v1.3c0,3.21,4.49,4.7,18.11,4.7H346.94c13.62,0,18.38-2,18.42-5H365v-1Z"/><path class="cls-2" d="M347.86,418.52C335.7,406.14,335.24,379,335.24,379H222s-.46,27.14-12.61,39.52S178.17,442,211.19,442H346C379,442,360,430.91,347.86,418.52Z"/><path class="cls-3" d="M289.46,442c6.74-15,28.28-27,55.07-29.65a29,29,0,0,0,4.24,5.62c11.94,12.16,30.52,23-.15,24Z"/><path class="cls-4" d="M269.59,442c-6.74-15-28.28-27-55.07-29.65a28.9,28.9,0,0,1-4.24,5.62c-11.94,12.16-30.52,23,.15,24Z"/><path class="cls-5" d="M210.42,442.13c11.38-.19,22.75-.28,34.13-.35l34.13-.11,34.13.11,17.07.13,17.06.23-17.06.23-17.07.13-34.13.11-34.13-.11C233.17,442.4,221.79,442.31,210.42,442.13Z"/><path class="cls-6" d="M0,363.24A17.12,17.12,0,0,0,17,380H537.49A16.72,16.72,0,0,0,554,363.24V332H0Z"/><path class="cls-7" d="M537.49,0H17C7.85,0,0,6.5,0,15.62V331H554V15.62C554,6.5,546.61,0,537.49,0ZM531,308H23V22H531Z"/><path class="cls-8" d="M0,361.41C0,370.53,7.85,379,17,379H537.49c9.12,0,16.51-8.47,16.51-17.59V331H0Z"/></svg>