<?xml version="1.0" encoding="utf-8"?>
<!-- Generator: Adobe Illustrator 17.0.0, SVG Export Plug-In . SVG Version: 6.00 Build 0)  -->
<!DOCTYPE svg PUBLIC "-//W3C//DTD SVG 1.1//EN" "http://www.w3.org/Graphics/SVG/1.1/DTD/svg11.dtd" [
	<!ENTITY ns_extend "http://ns.adobe.com/Extensibility/1.0/">
	<!ENTITY ns_ai "http://ns.adobe.com/AdobeIllustrator/10.0/">
	<!ENTITY ns_graphs "http://ns.adobe.com/Graphs/1.0/">
	<!ENTITY ns_vars "http://ns.adobe.com/Variables/1.0/">
	<!ENTITY ns_imrep "http://ns.adobe.com/ImageReplacement/1.0/">
	<!ENTITY ns_sfw "http://ns.adobe.com/SaveForWeb/1.0/">
	<!ENTITY ns_custom "http://ns.adobe.com/GenericCustomNamespace/1.0/">
	<!ENTITY ns_adobe_xpath "http://ns.adobe.com/XPath/1.0/">
]>
<svg version="1.1" id="Слой_1" xmlns:x="&ns_extend;" xmlns:i="&ns_ai;" xmlns:graph="&ns_graphs;"
	 xmlns="http://www.w3.org/2000/svg" xmlns:xlink="http://www.w3.org/1999/xlink" x="0px" y="0px" width="23px" height="19px"
	 viewBox="0 0 23 19" enable-background="new 0 0 23 19" xml:space="preserve">
<switch>
	<g i:extraneous="self">
		<g>
			<path fill="#72bb25" d="M18.96,10.839v4.283c0,1.068-0.379,1.981-1.139,2.739C17.063,18.621,16.15,19,15.082,19H3.878
				c-1.068,0-1.982-0.379-2.74-1.139C0.379,17.103,0,16.19,0,15.122V3.918c0-1.068,0.379-1.981,1.138-2.74
				C1.896,0.42,2.81,0.04,3.878,0.04h11.203c0.566,0,1.09,0.113,1.575,0.337c0.135,0.063,0.216,0.166,0.244,0.31
				c0.026,0.152-0.014,0.283-0.122,0.39l-0.66,0.66c-0.09,0.09-0.192,0.135-0.31,0.135c-0.026,0-0.067-0.009-0.12-0.027
				c-0.208-0.054-0.41-0.081-0.607-0.081H3.878c-0.593,0-1.1,0.211-1.522,0.632c-0.422,0.422-0.633,0.93-0.633,1.522v11.203
				c0,0.593,0.211,1.1,0.633,1.522s0.929,0.632,1.522,0.632h11.203c0.593,0,1.1-0.21,1.522-0.632s0.632-0.929,0.632-1.522v-3.419
				c0-0.118,0.041-0.216,0.122-0.298l0.862-0.86c0.088-0.09,0.192-0.135,0.308-0.135c0.055,0,0.108,0.014,0.163,0.041
				C18.87,10.521,18.96,10.65,18.96,10.839z M22.071,4.255L11.109,15.216c-0.216,0.216-0.471,0.324-0.768,0.324
				c-0.297,0-0.552-0.108-0.768-0.324L3.784,9.425c-0.216-0.214-0.323-0.47-0.323-0.767c0-0.296,0.107-0.552,0.323-0.767
				l1.481-1.482c0.216-0.215,0.471-0.323,0.768-0.323S6.584,6.194,6.8,6.409l3.541,3.542l8.713-8.712
				c0.216-0.216,0.471-0.323,0.768-0.323c0.297,0,0.552,0.107,0.768,0.323l1.481,1.481c0.216,0.216,0.322,0.471,0.322,0.768
				S22.287,4.039,22.071,4.255z"/>
		</g>
	</g>
</switch>
</svg>
